# xmcd CD database file
# Copyright (C) 1993-1998 Ti Kan
# 
# Track frame offsets:
#     150
#     11460
#     20105
#     34635
#     45212
#     58180
#     71725
#     82910
#     95955
#     104960
#     114390
#     125995
# 
# Disc length: 1828 seconds
# 
# Revision: 1
# Processed by: cddbd v1.4b41PL1 Copyright (c) Steve Scherf et al.
# Submitted via: DiscPlay 4.0.4
# 
DISCID=a807220c
DTITLE=Nat King Cole - Nat King Cole - 12 Grandes Exitos
DYEAR=1900
DGENRE=
TTITLE0=On the sunny side of the street
TTITLE1=Back home in Indiana
TTITLE2=I reallize now
TTITLE3=Too marvelous for words
TTITLE4=I may be wrong
TTITLE5=You must be blind
TTITLE6=I can't give you anything but love
TTITLE7=Shoo-shoo baby
TTITLE8=Solid potato salad
TTITLE9=Miss thing
TTITLE10=Mexico job
TTITLE11=Lester leeps in
EXTD=
EXTT0=
EXTT1=
EXTT2=
EXTT3=
EXTT4=
EXTT5=
EXTT6=
EXTT7=
EXTT8=
EXTT9=
EXTT10=
EXTT11=
PLAYORDER=
